<?xml version="1.0" encoding="iso-8859-1"?>
<!-- Generator: Adobe Illustrator 18.0.0, SVG Export Plug-In . SVG Version: 6.00 Build 0)  -->
<!DOCTYPE svg PUBLIC "-//W3C//DTD SVG 1.1//EN" "http://www.w3.org/Graphics/SVG/1.1/DTD/svg11.dtd">
<svg version="1.1" id="Capa_1" xmlns="http://www.w3.org/2000/svg" xmlns:xlink="http://www.w3.org/1999/xlink" x="0px" y="0px"
	 viewBox="0 0 400.828 400.828" style="enable-background:new 0 0 400.828 400.828;" xml:space="preserve">
<g>
	<path style="fill:none;" d="M176.133,179.72c-17.57,0-34.088,6.842-46.51,19.264c-12.424,12.424-19.268,28.941-19.268,46.512
		c0,17.568,6.844,34.086,19.268,46.51c12.422,12.424,28.939,19.266,46.51,19.266c17.568,0,34.086-6.842,46.51-19.266
		c25.646-25.647,25.646-67.375,0-93.021C210.219,186.561,193.701,179.72,176.133,179.72z M204.883,257.493h-16.752v16.752
		c0,6.627-5.371,12-12,12c-6.627,0-12-5.373-12-12v-16.752h-16.752c-6.627,0-12-5.373-12-12c0-6.627,5.373-12,12-12h16.752v-16.749
		c0-6.628,5.373-12,12-12c6.629,0,12,5.372,12,12v16.749h16.752c6.629,0,12,5.373,12,12
		C216.883,252.12,211.512,257.493,204.883,257.493z"/>
	<path style="fill:none;" d="M310.26,135.094H194.637c-6.627,0-12-5.372-12-12v-5.4c0-9.925-8.074-18-18.002-18H42.002
		c-9.926,0-18.002,8.075-18.002,18v235.573h304.262V153.096C328.262,143.169,320.188,135.094,310.26,135.094z M239.613,308.976
		c-16.957,16.957-39.502,26.295-63.48,26.295c-23.98,0-46.525-9.338-63.48-26.297c-16.957-16.955-26.297-39.5-26.297-63.479
		c0-23.98,9.34-46.525,26.297-63.481c16.955-16.956,39.5-26.294,63.48-26.294c23.979,0,46.523,9.338,63.48,26.294
		C274.617,217.017,274.617,273.972,239.613,308.976z"/>
	<path style="fill:#73D0F4;" d="M352.262,153.096v148.04h24.566V100.963c0-9.927-8.074-18.002-18.002-18.002H243.203
		c-6.627,0-12-5.372-12-12v-5.398c0-9.926-8.074-18.001-18.002-18.001H90.566c-9.924,0-18,8.075-18,18.001v10.131h92.068
		c20.916,0,38.309,15.365,41.484,35.4H310.26C333.42,111.094,352.262,129.936,352.262,153.096z"/>
	<path style="fill:#3D6889;" d="M358.826,58.961H254.686c-3.178-20.034-20.57-35.399-41.484-35.399H90.566
		c-23.158,0-42,18.842-42,42.001v10.131h-6.564c-23.16,0-42.002,18.841-42.002,42v247.573c0,6.629,5.373,12,12,12h328.262
		c6.629,0,12-5.371,12-12v-40.131h36.566c6.629,0,12-5.373,12-12V100.963C400.828,77.803,381.986,58.961,358.826,58.961z
		 M206.119,111.094c-3.176-20.035-20.568-35.4-41.484-35.4H72.566V65.563c0-9.926,8.076-18.001,18-18.001h122.635
		c9.928,0,18.002,8.075,18.002,18.001v5.398c0,6.628,5.373,12,12,12h115.623c9.928,0,18.002,8.075,18.002,18.002v200.173h-24.566
		v-148.04c0-23.16-18.842-42.002-42.002-42.002H206.119z M328.262,353.267H24V117.693c0-9.925,8.076-18,18.002-18h122.633
		c9.928,0,18.002,8.075,18.002,18v5.4c0,6.628,5.373,12,12,12H310.26c9.928,0,18.002,8.075,18.002,18.002V353.267z"/>
</g>
<g>
</g>
<g>
</g>
<g>
</g>
<g>
</g>
<g>
</g>
<g>
</g>
<g>
</g>
<g>
</g>
<g>
</g>
<g>
</g>
<g>
</g>
<g>
</g>
<g>
</g>
<g>
</g>
<g>
</g>
</svg>
