<?xml version="1.0"?>
<svg xmlns="http://www.w3.org/2000/svg" height="512px" viewBox="0 0 448 448" width="512px"><path d="m391.199219 34.191406-185.726563 185.730469-21.96875 44.574219 44.574219-21.96875 185.730469-185.726563zm0 0" fill="#006DF0"/><path d="m191.703125 211.664062c.386719-.785156.898437-1.503906 1.519531-2.121093l158.777344-158.773438v-50.769531h-352v448h352v-306.769531l-113.542969 113.546875c-.617187.621094-1.335937 1.132812-2.121093 1.519531l-66.878907 32.960937c-.984375.453126-2.054687.703126-3.136719.726563-.136718 0-.265624.09375-.390624.09375-.128907 0-.34375-.085937-.523438-.101563-.648438-.046874-1.292969-.171874-1.910156-.375-.285156-.074218-.566406-.167968-.839844-.273437-.890625-.386719-1.703125-.929687-2.398438-1.601563-2.425781-2.421874-3.035156-6.117187-1.523437-9.191406zm0 0" fill="#006DF0"/><path d="m402.515625 22.878906 22.601563-22.605468 22.605468 22.605468-22.605468 22.601563zm0 0" fill="#006DF0"/></svg>
